<svg width="48" height="48" viewBox="0 0 48 48" fill="none" xmlns="http://www.w3.org/2000/svg">
<g filter="url(#filter0_d_10122_121)">
<path d="M15.6154 0.50961H16.1154V0.5H32.3942C38.5119 0.5 43.5 5.49538 43.5 11.612V28.386C43.5 34.5029 38.5117 39.498 32.4038 39.498H15.6154C9.49635 39.498 4.5 34.5109 4.5 28.4052V11.6216C4.5 5.50553 9.49716 0.50961 15.6154 0.50961ZM6.57692 11.6302V11.6312V28.4149C6.57692 33.4117 10.5997 37.4316 15.6154 37.4316H32.4038C37.4017 37.4316 41.4231 33.4102 41.4231 28.3956V11.6216C41.4231 6.60671 37.4014 2.58565 32.3942 2.58565H15.6154C10.6077 2.58565 6.5871 6.60704 6.57692 11.6302ZM35.2788 7.6997C35.2788 7.12046 35.7375 6.66168 36.3173 6.66168C36.8971 6.66168 37.3558 7.12045 37.3558 7.6997C37.3558 8.27894 36.8971 8.73772 36.3173 8.73772C35.7375 8.73772 35.2788 8.27894 35.2788 7.6997ZM13.7404 20.0038C13.7404 14.3587 18.3625 9.73772 24.0096 9.73772C29.6567 9.73772 34.2788 14.3587 34.2788 20.0038C34.2788 25.6489 29.6567 30.2699 24.0096 30.2699C18.3625 30.2699 13.7404 25.6489 13.7404 20.0038ZM32.2019 20.0038C32.2019 15.4596 28.5549 11.8137 24.0096 11.8137C19.4644 11.8137 15.8173 15.4596 15.8173 20.0038C15.8173 24.5481 19.4644 28.1939 24.0096 28.1939C28.5549 28.1939 32.2019 24.5481 32.2019 20.0038Z" fill="#070707" stroke="#070707"/>
</g>
<defs>
<filter id="filter0_d_10122_121" x="0" y="0" width="48" height="47.998" filterUnits="userSpaceOnUse" color-interpolation-filters="sRGB">
<feFlood flood-opacity="0" result="BackgroundImageFix"/>
<feColorMatrix in="SourceAlpha" type="matrix" values="0 0 0 0 0 0 0 0 0 0 0 0 0 0 0 0 0 0 127 0" result="hardAlpha"/>
<feOffset dy="4"/>
<feGaussianBlur stdDeviation="2"/>
<feComposite in2="hardAlpha" operator="out"/>
<feColorMatrix type="matrix" values="0 0 0 0 0 0 0 0 0 0 0 0 0 0 0 0 0 0 0.25 0"/>
<feBlend mode="normal" in2="BackgroundImageFix" result="effect1_dropShadow_10122_121"/>
<feBlend mode="normal" in="SourceGraphic" in2="effect1_dropShadow_10122_121" result="shape"/>
</filter>
</defs>
</svg>
