<svg width="35" height="34" viewBox="0 0 35 34" fill="none" xmlns="http://www.w3.org/2000/svg">
<g filter="url(#filter0_d_10122_8)">
<path d="M11.4147 25.6211C10.7843 26.1123 10.1402 26.1259 9.48235 25.662C8.82452 25.1982 8.60525 24.5843 8.82452 23.8203L11.168 16.2485L5.20649 12.0329C4.54867 11.5691 4.35023 10.9551 4.61116 10.1911C4.871 9.42715 5.39836 9.04516 6.19323 9.04516H13.5526L15.9372 1.18692C16.0743 0.804923 16.287 0.511331 16.5753 0.306144C16.8626 0.102048 17.1707 0 17.4996 0C17.8285 0 18.1366 0.102048 18.4238 0.306144C18.7122 0.511331 18.9249 0.804923 19.0619 1.18692L21.4465 9.04516H28.8059C29.6008 9.04516 30.1287 9.42715 30.3896 10.1911C30.6495 10.9551 30.4505 11.5691 29.7927 12.0329L23.8311 16.2485L26.1746 23.8203C26.3939 24.5843 26.1746 25.1982 25.5168 25.662C24.859 26.1259 24.2149 26.1123 23.5844 25.6211L17.4996 20.9962L11.4147 25.6211Z" fill="#070707"/>
</g>
<defs>
<filter id="filter0_d_10122_8" x="0.5" y="0" width="34" height="34" filterUnits="userSpaceOnUse" color-interpolation-filters="sRGB">
<feFlood flood-opacity="0" result="BackgroundImageFix"/>
<feColorMatrix in="SourceAlpha" type="matrix" values="0 0 0 0 0 0 0 0 0 0 0 0 0 0 0 0 0 0 127 0" result="hardAlpha"/>
<feOffset dy="4"/>
<feGaussianBlur stdDeviation="2"/>
<feComposite in2="hardAlpha" operator="out"/>
<feColorMatrix type="matrix" values="0 0 0 0 0 0 0 0 0 0 0 0 0 0 0 0 0 0 0.25 0"/>
<feBlend mode="normal" in2="BackgroundImageFix" result="effect1_dropShadow_10122_8"/>
<feBlend mode="normal" in="SourceGraphic" in2="effect1_dropShadow_10122_8" result="shape"/>
</filter>
</defs>
</svg>
