<?xml version="1.0" standalone="no"?>
<!DOCTYPE svg PUBLIC "-//W3C//DTD SVG 20010904//EN"
 "http://www.w3.org/TR/2001/REC-SVG-20010904/DTD/svg10.dtd">
<svg version="1.0" xmlns="http://www.w3.org/2000/svg"
 width="260.000000pt" height="260.000000pt" viewBox="0 0 260.000000 260.000000"
 preserveAspectRatio="xMidYMid meet">
<metadata>
Created by potrace 1.14, written by Peter Selinger 2001-2017
</metadata>
<g transform="translate(0.000000,260.000000) scale(0.100000,-0.100000)"
fill="#000000" stroke="none">
<path d="M0 1300 l0 -1300 1300 0 1300 0 0 1300 0 1300 -1300 0 -1300 0 0
-1300z m1007 845 c12 -8 72 -106 133 -218 120 -217 134 -237 160 -237 26 0 39
20 154 230 58 107 118 205 132 218 24 21 31 22 248 22 214 0 224 -1 242 -21
18 -20 19 -48 19 -786 l0 -765 -24 -19 c-21 -17 -41 -19 -230 -19 -163 0 -211
3 -227 14 -18 14 -19 33 -24 430 l-5 416 -74 -136 c-43 -80 -84 -142 -99 -152
-41 -26 -201 -24 -238 3 -15 12 -59 79 -98 152 l-71 131 -5 -406 c-3 -224 -9
-414 -13 -424 -13 -25 -37 -28 -243 -28 -174 0 -194 2 -215 19 l-24 19 0 765
c0 738 1 766 19 786 18 20 28 21 240 21 182 0 225 -3 243 -15z"/>
</g>
</svg>
